<svg id="visual" viewBox="0 0 1200 600" width="1200" height="600" xmlns="http://www.w3.org/2000/svg" xmlns:xlink="http://www.w3.org/1999/xlink" version="1.1"><rect x="0" y="0" width="1200" height="600" fill="#001220"></rect><path d="M0 397L28.5 394.2C57 391.3 114 385.7 171.2 383.8C228.3 382 285.7 384 342.8 392C400 400 457 414 514.2 424.3C571.3 434.7 628.7 441.3 685.8 436.8C743 432.3 800 416.7 857.2 405.3C914.3 394 971.7 387 1028.8 389.5C1086 392 1143 404 1171.5 410L1200 416L1200 601L1171.5 601C1143 601 1086 601 1028.8 601C971.7 601 914.3 601 857.2 601C800 601 743 601 685.8 601C628.7 601 571.3 601 514.2 601C457 601 400 601 342.8 601C285.7 601 228.3 601 171.2 601C114 601 57 601 28.5 601L0 601Z" fill="#a6e3e9"></path><path d="M0 467L28.5 464.3C57 461.7 114 456.3 171.2 457C228.3 457.7 285.7 464.3 342.8 463C400 461.7 457 452.3 514.2 444.7C571.3 437 628.7 431 685.8 435.2C743 439.3 800 453.7 857.2 459.5C914.3 465.3 971.7 462.7 1028.8 459.5C1086 456.3 1143 452.7 1171.5 450.8L1200 449L1200 601L1171.5 601C1143 601 1086 601 1028.8 601C971.7 601 914.3 601 857.2 601C800 601 743 601 685.8 601C628.7 601 571.3 601 514.2 601C457 601 400 601 342.8 601C285.7 601 228.3 601 171.2 601C114 601 57 601 28.5 601L0 601Z" fill="#99dce3"></path><path d="M0 460L28.5 463.7C57 467.3 114 474.7 171.2 477.7C228.3 480.7 285.7 479.3 342.8 473.3C400 467.3 457 456.7 514.2 450C571.3 443.3 628.7 440.7 685.8 444C743 447.3 800 456.7 857.2 463.8C914.3 471 971.7 476 1028.8 476C1086 476 1143 471 1171.5 468.5L1200 466L1200 601L1171.5 601C1143 601 1086 601 1028.8 601C971.7 601 914.3 601 857.2 601C800 601 743 601 685.8 601C628.7 601 571.3 601 514.2 601C457 601 400 601 342.8 601C285.7 601 228.3 601 171.2 601C114 601 57 601 28.5 601L0 601Z" fill="#8cd6dc"></path><path d="M0 487L28.5 486C57 485 114 483 171.2 484.7C228.3 486.3 285.7 491.7 342.8 500.3C400 509 457 521 514.2 519.3C571.3 517.7 628.7 502.3 685.8 502C743 501.7 800 516.3 857.2 518.8C914.3 521.3 971.7 511.7 1028.8 504.5C1086 497.3 1143 492.7 1171.5 490.3L1200 488L1200 601L1171.5 601C1143 601 1086 601 1028.8 601C971.7 601 914.3 601 857.2 601C800 601 743 601 685.8 601C628.7 601 571.3 601 514.2 601C457 601 400 601 342.8 601C285.7 601 228.3 601 171.2 601C114 601 57 601 28.5 601L0 601Z" fill="#7fcfd5"></path><path d="M0 557L28.5 558C57 559 114 561 171.2 558.8C228.3 556.7 285.7 550.3 342.8 548.2C400 546 457 548 514.2 547.5C571.3 547 628.7 544 685.8 544.2C743 544.3 800 547.7 857.2 549.5C914.3 551.3 971.7 551.7 1028.8 552.5C1086 553.3 1143 554.7 1171.5 555.3L1200 556L1200 601L1171.5 601C1143 601 1086 601 1028.8 601C971.7 601 914.3 601 857.2 601C800 601 743 601 685.8 601C628.7 601 571.3 601 514.2 601C457 601 400 601 342.8 601C285.7 601 228.3 601 171.2 601C114 601 57 601 28.5 601L0 601Z" fill="#71c9ce"></path></svg>